# xmcd
#
# Track frame offsets:
#	150
#	35394
#	61668
#	95280
#	117699
#	143667
#	176649
#
# Disc length: 2742 seconds
# Revision: 1
# Processed by: cddbd v1.5.2PL0 Copyright (c) Steve Scherf et al.
# Submitted via: dBpowerAMP V12.0
#
DISCID=580ab407
DTITLE=Dżem - 35 Urodziny - CD3
DYEAR=2015
DGENRE=Blues
TTITLE0=Skazany na bluesa
TTITLE1=Nie patrz tak na mnie
TTITLE2=To wszystko co mam
TTITLE3=To tylko dwa piwa
TTITLE4=Płyń mój bluesie, płyń
TTITLE5=Ani dużo ani mało
TTITLE6=Diabelski żart
EXTD=
EXTT0=
EXTT1=
EXTT2=
EXTT3=
EXTT4=
EXTT5=
EXTT6=
PLAYORDER=
